<svg width="23" height="23" viewBox="0 0 23 23" fill="none" xmlns="http://www.w3.org/2000/svg">
<g id="ic:outline-watch-later">
<path id="Vector" d="M11.7756 2.44254C6.82923 2.44254 2.78223 6.48954 2.78223 11.4359C2.78223 16.3822 6.82923 20.4292 11.7756 20.4292C16.7219 20.4292 20.7689 16.3822 20.7689 11.4359C20.7689 6.48954 16.7219 2.44254 11.7756 2.44254ZM11.7756 18.6305C7.8095 18.6305 4.58089 15.4019 4.58089 11.4359C4.58089 7.46981 7.8095 4.2412 11.7756 4.2412C15.7416 4.2412 18.9702 7.46981 18.9702 11.4359C18.9702 15.4019 15.7416 18.6305 11.7756 18.6305ZM12.2252 6.9392H10.8762V12.3352L15.5528 15.2131L16.2722 14.0439L12.2252 11.6157V6.9392Z" fill="#CCFF00"/>
</g>
</svg>
