<svg width="11" height="11" viewBox="0 0 11 11" fill="none" xmlns="http://www.w3.org/2000/svg">
<path d="M5.50016 0.0832825C2.521 0.0832825 0.0834961 2.52078 0.0834961 5.49995C0.0834961 8.47912 2.521 10.9166 5.50016 10.9166C8.47933 10.9166 10.9168 8.47912 10.9168 5.49995C10.9168 2.52078 8.47933 0.0832825 5.50016 0.0832825ZM5.50016 9.83328C3.11141 9.83328 1.16683 7.8887 1.16683 5.49995C1.16683 3.1112 3.11141 1.16662 5.50016 1.16662C7.88891 1.16662 9.8335 3.1112 9.8335 5.49995C9.8335 7.8887 7.88891 9.83328 5.50016 9.83328ZM5.771 2.79162H4.9585V6.04162L7.77516 7.77495L8.2085 7.07078L5.771 5.60828V2.79162Z" fill="#CCFF00"/>
</svg>
